<?xml version="1.0" standalone="no"?>
<!DOCTYPE svg PUBLIC "-//W3C//DTD SVG 20010904//EN"
 "http://www.w3.org/TR/2001/REC-SVG-20010904/DTD/svg10.dtd">
<svg version="1.0" xmlns="http://www.w3.org/2000/svg"
 width="622.000000pt" height="100.000000pt" viewBox="0 0 622.000000 100.000000"
 preserveAspectRatio="xMidYMid meet">

<g transform="translate(0.000000,100.000000) scale(0.100000,-0.100000)"
fill="#000000" stroke="none">
<path d="M92 919 c-72 -36 -72 -34 -72 -424 0 -391 0 -389 73 -424 l43 -21
2968 0 c2585 0 2971 2 2995 15 16 8 40 28 55 45 l26 32 0 233 0 234 -31 35
c-16 19 -39 38 -50 41 -17 6 -19 16 -19 131 l0 124 -2972 0 -2973 0 -43 -21z
m68 -425 c0 -298 -2 -335 -15 -324 -13 11 -15 59 -15 324 0 293 3 336 27 336
2 0 3 -151 3 -336z"/>
</g>
</svg>
